<?xml version="1.0" encoding="UTF-8"?>
<svg id="Layer_2" data-name="Layer 2" xmlns="http://www.w3.org/2000/svg" viewBox="0 0 273.04 47.24">
  <defs>
    <style>
      .cls-1 {
        fill: #2b2a29;
        stroke: #2b2a29;
      }

      .cls-1, .cls-2 {
        stroke-miterlimit: 10;
        stroke-width: .57px;
      }

      .cls-2 {
        fill: #898989;
        stroke: #898989;
      }
    </style>
  </defs>
  <g id="Layer_1-2" data-name="Layer 1">
    <g id="Warstwa_1">
      <circle class="cls-1" cx="47.58" cy="25.03" r="2.53"/>
      <path class="cls-2" d="M.28,3.77H15.9c3.52,0,6.21,.27,8.06,.81,2.48,.73,4.61,2.03,6.38,3.91,1.78,1.87,3.12,4.16,4.05,6.87,.92,2.7,1.38,6.05,1.38,10.02,0,3.49-.43,6.5-1.3,9.02-1.06,3.09-2.57,5.59-4.53,7.49-1.48,1.45-3.48,2.58-6,3.39-1.89,.6-4.4,.9-7.56,.9H.28V3.77H.28Zm8.59,7.17v28.08h6.37c2.38,0,4.1-.14,5.15-.4,1.39-.35,2.54-.94,3.45-1.77,.92-.83,1.66-2.19,2.23-4.09,.58-1.9,.87-4.49,.87-7.77s-.29-5.78-.87-7.54c-.57-1.76-1.38-3.12-2.42-4.11-1.04-.98-2.35-1.65-3.95-1.99-1.18-.27-3.52-.4-7-.4h-3.83ZM86.64,30.55l8.29,2.55c-1.27,4.67-3.4,8.13-6.36,10.4-2.96,2.26-6.71,3.4-11.26,3.4-5.64,0-10.27-1.93-13.9-5.77-3.62-3.85-5.44-9.11-5.44-15.79,0-7.06,1.83-12.55,5.47-16.46,3.64-3.91,8.44-5.86,14.38-5.86,5.19,0,9.41,1.54,12.65,4.61,1.93,1.82,3.38,4.42,4.34,7.83l-8.47,2.01c-.5-2.19-1.55-3.93-3.14-5.2-1.6-1.27-3.53-1.91-5.8-1.91-3.15,0-5.71,1.13-7.66,3.39-1.96,2.25-2.94,5.9-2.94,10.96,0,5.35,.97,9.17,2.89,11.44,1.93,2.28,4.44,3.42,7.53,3.42,2.28,0,4.24-.72,5.88-2.17,1.64-1.45,2.82-3.72,3.53-6.83h0Zm13.87-5.31c0-4.32,.65-7.96,1.94-10.9,.96-2.16,2.28-4.11,3.95-5.82,1.67-1.72,3.49-2.99,5.48-3.83,2.65-1.12,5.7-1.68,9.15-1.68,6.26,0,11.25,1.94,15.02,5.82,3.75,3.89,5.63,9.29,5.63,16.21s-1.87,12.23-5.59,16.1c-3.72,3.88-8.71,5.81-14.94,5.81s-11.33-1.93-15.05-5.78c-3.72-3.85-5.59-9.16-5.59-15.93Zm8.83-.29c0,4.81,1.12,8.45,3.34,10.94,2.22,2.48,5.04,3.72,8.46,3.72s6.23-1.23,8.43-3.69c2.19-2.47,3.29-6.16,3.29-11.09s-1.07-8.5-3.21-10.89c-2.13-2.4-4.97-3.59-8.51-3.59s-6.39,1.21-8.55,3.63c-2.16,2.43-3.25,6.08-3.25,10.97h0Zm39.02,21.23V3.77h18.04c4.53,0,7.83,.38,9.88,1.14,2.06,.76,3.7,2.11,4.94,4.06,1.23,1.95,1.86,4.18,1.86,6.68,0,3.19-.93,5.81-2.79,7.89-1.87,2.07-4.65,3.38-8.36,3.92,1.85,1.08,3.37,2.26,4.56,3.55,1.2,1.29,2.82,3.59,4.86,6.89l5.17,8.27h-10.24l-6.14-9.26c-2.2-3.29-3.71-5.36-4.53-6.22-.81-.85-1.67-1.44-2.58-1.76-.92-.32-2.36-.47-4.33-.47h-1.74v17.71h-8.59Zm8.59-24.46h6.34c4.11,0,6.66-.18,7.69-.52,1.02-.35,1.83-.95,2.4-1.8,.58-.85,.87-1.92,.87-3.19,0-1.43-.38-2.58-1.15-3.47-.76-.88-1.84-1.43-3.22-1.66-.7-.1-2.78-.15-6.25-.15h-6.68v10.78Zm34.19,24.46V3.77h13.73c5.2,0,8.59,.21,10.17,.63,2.43,.64,4.46,2.02,6.1,4.16s2.46,4.89,2.46,8.26c0,2.61-.47,4.79-1.41,6.56-.95,1.78-2.14,3.17-3.59,4.19-1.45,1.01-2.93,1.68-4.43,2-2.04,.4-5,.61-8.87,.61h-5.57v15.99h-8.59Zm8.59-35.24v12.08h4.67c3.37,0,5.61-.23,6.74-.67,1.14-.44,2.02-1.14,2.67-2.09,.64-.95,.97-2.04,.97-3.31,0-1.55-.45-2.82-1.35-3.83-.91-1.01-2.04-1.64-3.44-1.9-1.02-.19-3.06-.29-6.14-.29h-4.12Zm29.14,14.29c0-4.32,.65-7.96,1.94-10.9,.96-2.16,2.28-4.11,3.95-5.82,1.67-1.72,3.49-2.99,5.48-3.83,2.65-1.12,5.7-1.68,9.15-1.68,6.26,0,11.25,1.94,15.02,5.82,3.75,3.89,5.63,9.29,5.63,16.21s-1.87,12.23-5.59,16.1c-3.72,3.88-8.71,5.81-14.94,5.81s-11.33-1.93-15.05-5.78c-3.72-3.85-5.59-9.16-5.59-15.93Zm8.83-.29c0,4.81,1.12,8.45,3.34,10.94,2.22,2.48,5.04,3.72,8.46,3.72s6.23-1.23,8.43-3.69c2.19-2.47,3.29-6.16,3.29-11.09s-1.07-8.5-3.21-10.89c-2.13-2.4-4.97-3.59-8.51-3.59s-6.39,1.21-8.55,3.63c-2.16,2.43-3.25,6.08-3.25,10.97h0Z"/>
      <path class="cls-1" d="M3.01,1.05h15.62c3.52,0,6.21,.27,8.06,.81,2.48,.73,4.61,2.03,6.38,3.91,1.78,1.87,3.12,4.16,4.05,6.87,.92,2.7,1.38,6.05,1.38,10.02,0,3.49-.43,6.5-1.3,9.02-1.06,3.09-2.57,5.59-4.53,7.49-1.48,1.45-3.48,2.58-6,3.39-1.89,.6-4.4,.9-7.56,.9H3.01V1.05h0Zm8.59,7.17v28.08h6.37c2.38,0,4.1-.14,5.15-.4,1.39-.35,2.54-.94,3.45-1.77,.92-.83,1.66-2.19,2.23-4.09,.58-1.9,.87-4.49,.87-7.77s-.29-5.78-.87-7.54c-.57-1.76-1.38-3.12-2.42-4.11-1.04-.98-2.35-1.65-3.95-1.99-1.18-.27-3.52-.4-7-.4h-3.83ZM89.37,27.83l8.29,2.55c-1.27,4.67-3.4,8.13-6.36,10.4-2.96,2.26-6.71,3.4-11.26,3.4-5.64,0-10.27-1.93-13.9-5.77-3.62-3.85-5.44-9.11-5.44-15.79,0-7.06,1.83-12.55,5.47-16.46,3.64-3.91,8.44-5.86,14.38-5.86,5.19,0,9.41,1.54,12.65,4.61,1.93,1.82,3.38,4.42,4.34,7.83l-8.47,2.01c-.5-2.19-1.55-3.93-3.14-5.2-1.6-1.27-3.53-1.91-5.8-1.91-3.15,0-5.71,1.13-7.66,3.39-1.96,2.25-2.94,5.9-2.94,10.96,0,5.35,.97,9.17,2.89,11.44,1.93,2.28,4.44,3.42,7.53,3.42,2.28,0,4.24-.72,5.88-2.17,1.64-1.45,2.82-3.72,3.53-6.83h0Zm13.87-5.31c0-4.32,.65-7.96,1.94-10.9,.96-2.16,2.28-4.11,3.95-5.82,1.67-1.72,3.49-2.99,5.48-3.83,2.65-1.12,5.7-1.68,9.15-1.68,6.26,0,11.25,1.94,15.02,5.82,3.75,3.89,5.63,9.29,5.63,16.21s-1.87,12.23-5.59,16.1c-3.72,3.88-8.71,5.81-14.94,5.81s-11.33-1.93-15.05-5.78c-3.72-3.85-5.59-9.16-5.59-15.93Zm8.83-.29c0,4.81,1.12,8.45,3.34,10.94,2.22,2.48,5.04,3.72,8.46,3.72s6.23-1.23,8.43-3.69c2.19-2.47,3.29-6.16,3.29-11.09s-1.07-8.5-3.21-10.89c-2.13-2.4-4.97-3.59-8.51-3.59s-6.39,1.21-8.55,3.63c-2.16,2.43-3.25,6.08-3.25,10.97h0Zm39.02,21.23V1.05h18.04c4.53,0,7.83,.38,9.88,1.14,2.06,.76,3.7,2.11,4.94,4.06,1.23,1.95,1.86,4.18,1.86,6.68,0,3.19-.93,5.81-2.79,7.89-1.87,2.07-4.65,3.38-8.36,3.92,1.85,1.08,3.37,2.26,4.56,3.55,1.2,1.29,2.82,3.59,4.86,6.89l5.17,8.27h-10.24l-6.14-9.26c-2.2-3.29-3.71-5.36-4.53-6.22-.81-.85-1.67-1.44-2.58-1.76-.92-.32-2.36-.47-4.33-.47h-1.74v17.71h-8.59Zm8.59-24.46h6.34c4.11,0,6.66-.18,7.69-.52,1.02-.35,1.83-.95,2.4-1.8,.58-.85,.87-1.92,.87-3.19,0-1.43-.38-2.58-1.15-3.47-.76-.88-1.84-1.43-3.22-1.66-.7-.1-2.78-.15-6.25-.15h-6.68v10.78Zm34.19,24.46V1.05h13.73c5.2,0,8.59,.21,10.17,.63,2.43,.64,4.46,2.02,6.1,4.16s2.46,4.89,2.46,8.26c0,2.61-.47,4.79-1.41,6.56-.95,1.78-2.14,3.17-3.59,4.19-1.45,1.01-2.93,1.68-4.43,2-2.04,.4-5,.61-8.87,.61h-5.57v15.99h-8.59Zm8.59-35.24v12.08h4.67c3.37,0,5.61-.23,6.74-.67,1.14-.44,2.02-1.14,2.67-2.09,.64-.95,.97-2.04,.97-3.31,0-1.55-.45-2.82-1.35-3.83-.91-1.01-2.04-1.64-3.44-1.9-1.02-.19-3.06-.29-6.14-.29h-4.12Zm29.14,14.29c0-4.32,.65-7.96,1.94-10.9,.96-2.16,2.28-4.11,3.95-5.82,1.67-1.72,3.49-2.99,5.48-3.83,2.65-1.12,5.7-1.68,9.15-1.68,6.26,0,11.25,1.94,15.02,5.82,3.75,3.89,5.63,9.29,5.63,16.21s-1.87,12.23-5.59,16.1c-3.72,3.88-8.71,5.81-14.94,5.81s-11.33-1.93-15.05-5.78c-3.72-3.85-5.59-9.16-5.59-15.93Zm8.83-.29c0,4.81,1.12,8.45,3.34,10.94,2.22,2.48,5.04,3.72,8.46,3.72s6.23-1.23,8.43-3.69c2.19-2.47,3.29-6.16,3.29-11.09s-1.07-8.5-3.21-10.89c-2.13-2.4-4.97-3.59-8.51-3.59s-6.39,1.21-8.55,3.63c-2.16,2.43-3.25,6.08-3.25,10.97h0Z"/>
      <path class="cls-1" d="M89.37,27.83l8.29,2.55c-1.27,4.67-3.4,8.13-6.36,10.4-2.96,2.26-6.71,3.4-11.26,3.4-5.64,0-10.27-1.93-13.9-5.77-3.62-3.85-5.44-9.11-5.44-15.79,0-7.06,1.83-12.55,5.47-16.46,3.64-3.91,8.44-5.86,14.38-5.86,5.19,0,9.41,1.54,12.65,4.61,1.93,1.82,3.38,4.42,4.34,7.83l-8.47,2.01c-.5-2.19-1.55-3.93-3.14-5.2-1.6-1.27-3.53-1.91-5.8-1.91-3.15,0-5.71,1.13-7.66,3.39-1.96,2.25-2.94,5.9-2.94,10.96,0,5.35,.97,9.17,2.89,11.44,1.93,2.28,4.44,3.42,7.53,3.42,2.28,0,4.24-.72,5.88-2.17,1.64-1.45,2.82-3.72,3.53-6.83h0Zm13.87-5.31c0-4.32,.65-7.96,1.94-10.9,.96-2.16,2.28-4.11,3.95-5.82,1.67-1.72,3.49-2.99,5.48-3.83,2.65-1.12,5.7-1.68,9.15-1.68,6.26,0,11.25,1.94,15.02,5.82,3.75,3.89,5.63,9.29,5.63,16.21s-1.87,12.23-5.59,16.1c-3.72,3.88-8.71,5.81-14.94,5.81s-11.33-1.93-15.05-5.78c-3.72-3.85-5.59-9.16-5.59-15.93Zm8.83-.29c0,4.81,1.12,8.45,3.34,10.94,2.22,2.48,5.04,3.72,8.46,3.72s6.23-1.23,8.43-3.69c2.19-2.47,3.29-6.16,3.29-11.09s-1.07-8.5-3.21-10.89c-2.13-2.4-4.97-3.59-8.51-3.59s-6.39,1.21-8.55,3.63c-2.16,2.43-3.25,6.08-3.25,10.97h0Zm39.02,21.23V1.05h18.04c4.53,0,7.83,.38,9.88,1.14,2.06,.76,3.7,2.11,4.94,4.06,1.23,1.95,1.86,4.18,1.86,6.68,0,3.19-.93,5.81-2.79,7.89-1.87,2.07-4.65,3.38-8.36,3.92,1.85,1.08,3.37,2.26,4.56,3.55,1.2,1.29,2.82,3.59,4.86,6.89l5.17,8.27h-10.24l-6.14-9.26c-2.2-3.29-3.71-5.36-4.53-6.22-.81-.85-1.67-1.44-2.58-1.76-.92-.32-2.36-.47-4.33-.47h-1.74v17.71h-8.59Zm8.59-24.46h6.34c4.11,0,6.66-.18,7.69-.52,1.02-.35,1.83-.95,2.4-1.8,.58-.85,.87-1.92,.87-3.19,0-1.43-.38-2.58-1.15-3.47-.76-.88-1.84-1.43-3.22-1.66-.7-.1-2.78-.15-6.25-.15h-6.68v10.78Zm34.19,24.46V1.05h13.73c5.2,0,8.59,.21,10.17,.63,2.43,.64,4.46,2.02,6.1,4.16s2.46,4.89,2.46,8.26c0,2.61-.47,4.79-1.41,6.56-.95,1.78-2.14,3.17-3.59,4.19-1.45,1.01-2.93,1.68-4.43,2-2.04,.4-5,.61-8.87,.61h-5.57v15.99h-8.59Zm8.59-35.24v12.08h4.67c3.37,0,5.61-.23,6.74-.67,1.14-.44,2.02-1.14,2.67-2.09,.64-.95,.97-2.04,.97-3.31,0-1.55-.45-2.82-1.35-3.83-.91-1.01-2.04-1.64-3.44-1.9-1.02-.19-3.06-.29-6.14-.29h-4.12Zm29.14,14.29c0-4.32,.65-7.96,1.94-10.9,.96-2.16,2.28-4.11,3.95-5.82,1.67-1.72,3.49-2.99,5.48-3.83,2.65-1.12,5.7-1.68,9.15-1.68,6.26,0,11.25,1.94,15.02,5.82,3.75,3.89,5.63,9.29,5.63,16.21s-1.87,12.23-5.59,16.1c-3.72,3.88-8.71,5.81-14.94,5.81s-11.33-1.93-15.05-5.78c-3.72-3.85-5.59-9.16-5.59-15.93Zm8.83-.29c0,4.81,1.12,8.45,3.34,10.94,2.22,2.48,5.04,3.72,8.46,3.72s6.23-1.23,8.43-3.69c2.19-2.47,3.29-6.16,3.29-11.09s-1.07-8.5-3.21-10.89c-2.13-2.4-4.97-3.59-8.51-3.59s-6.39,1.21-8.55,3.63c-2.16,2.43-3.25,6.08-3.25,10.97h0Z"/>
    </g>
  </g>
</svg>