<?xml version="1.0" encoding="UTF-8"?>
<!DOCTYPE svg PUBLIC "-//W3C//DTD SVG 1.1//EN" "http://www.w3.org/Graphics/SVG/1.1/DTD/svg11.dtd">
<!-- Creator: CorelDRAW (Wersja próbna) -->
<svg xmlns="http://www.w3.org/2000/svg" xml:space="preserve" width="96.323mm" height="16.6636mm" version="1.1" style="shape-rendering:geometricPrecision; text-rendering:geometricPrecision; image-rendering:optimizeQuality; fill-rule:evenodd; clip-rule:evenodd"
viewBox="0 0 9769.57 1690.11"
 xmlns:xlink="http://www.w3.org/1999/xlink"
 xmlns:xodm="http://www.corel.com/coreldraw/odm/2003">
 <defs>
  <style type="text/css">
   <![CDATA[
    .str0 {stroke:#898989;stroke-width:20.29;stroke-miterlimit:22.9256}
    .str1 {stroke:#2B2A29;stroke-width:20.29;stroke-miterlimit:22.9256}
    .str2 {stroke:#2B2A29;stroke-width:20.29;stroke-miterlimit:22.9256}
    .fil0 {fill:#898989}
    .fil1 {fill:#2B2A29}
    .fil2 {fill:#898989;fill-rule:nonzero}
    .fil3 {fill:#2B2A29;fill-rule:nonzero}
   ]]>
  </style>
 </defs>
 <g id="Warstwa_x0020_1">
  <metadata id="CorelCorpID_0Corel-Layer"/>
  <circle class="fil0 str0" cx="1646.43" cy="934.4" r="90.56"/>
  <circle class="fil1 str1" cx="1702.46" cy="895.76" r="90.56"/>
  <path class="fil2 str0" d="M10.14 135l558.79 0c126.09,0 222.17,9.53 288.22,28.96 88.66,26.14 164.96,72.76 228.18,139.88 63.58,66.76 111.62,148.71 144.82,245.84 32.85,96.78 49.44,216.52 49.44,358.52 0,125.04 -15.54,232.42 -46.63,322.84 -37.79,110.56 -91.83,199.92 -162.12,268.1 -52.98,51.92 -124.69,92.19 -214.76,121.15 -67.47,21.54 -157.54,32.14 -270.57,32.14l-575.38 0 0 -1517.42zm307.3 256.43l0 1004.55 227.82 0c85.13,0 146.59,-4.95 184.38,-14.48 49.81,-12.36 90.78,-33.56 123.27,-63.23 32.85,-29.67 59.34,-78.41 79.83,-146.23 20.83,-67.81 31.08,-160.71 31.08,-277.98 0,-117.27 -10.24,-206.99 -31.08,-269.86 -20.49,-62.87 -49.45,-111.62 -86.54,-146.93 -37.09,-34.97 -84.07,-58.99 -141.3,-71.35 -42.39,-9.53 -126.09,-14.48 -250.43,-14.48l-137.05 0zm2782.65 701.49l296.7 91.13c-45.56,167.08 -121.51,291.06 -227.47,372.29 -105.97,80.9 -240.19,121.51 -403.02,121.51 -201.68,0 -367.35,-68.88 -497.33,-206.62 -129.63,-137.76 -194.62,-326.02 -194.62,-565.15 0,-252.56 65.35,-448.94 195.68,-588.81 130.34,-139.88 302,-209.82 514.64,-209.82 185.79,0 336.62,55.1 452.47,164.96 69.23,64.99 120.81,158.24 155.42,280.1l-303.07 72.06c-18.01,-78.41 -55.45,-140.59 -112.32,-186.15 -57.22,-45.57 -126.46,-68.18 -207.7,-68.18 -112.67,0 -204.16,40.28 -274.09,121.16 -70.29,80.53 -105.26,211.22 -105.26,392.07 0,191.44 34.62,328.14 103.49,409.38 69.22,81.59 158.94,122.21 269.51,122.21 81.59,0 151.87,-25.78 210.52,-77.7 58.63,-51.93 101.02,-133.17 126.45,-244.43zm496.27 -190.03c0,-154.7 23.31,-284.69 69.59,-389.95 34.26,-77.36 81.59,-146.93 141.29,-208.4 59.69,-61.46 125.04,-107.02 196.03,-137.05 94.66,-39.92 203.8,-60.05 327.43,-60.05 223.95,0 402.67,69.59 537.25,208.4 134.22,139.18 201.33,332.38 201.33,579.99 0,245.49 -66.76,437.64 -199.92,576.09 -133.16,138.82 -311.54,208.04 -534.42,208.04 -225.7,0 -405.5,-68.88 -538.66,-206.98 -133.16,-137.76 -199.92,-327.79 -199.92,-570.1zm315.78 -10.24c0,172.02 39.91,302.36 119.39,391.37 79.48,88.66 180.5,133.16 302.7,133.16 122.57,0 222.88,-44.15 301.65,-132.11 78.42,-88.3 117.62,-220.41 117.62,-396.66 0,-174.14 -38.15,-304.11 -114.79,-389.59 -76.29,-85.84 -177.67,-128.58 -304.48,-128.58 -126.45,0 -228.53,43.45 -305.88,129.99 -77.36,86.89 -116.21,217.59 -116.21,392.42zm1396.28 759.78l0 -1517.42 645.33 0c162.13,0 280.1,13.77 353.57,40.97 73.83,27.2 132.46,75.59 176.61,145.18 44.15,69.93 66.4,149.41 66.4,239.13 0,114.08 -33.21,208.04 -99.96,282.22 -66.76,74.17 -166.36,120.8 -299.17,140.23 66.06,38.5 120.45,80.89 163.19,127.16 43.09,46.27 101.02,128.58 173.78,246.54l185.08 296 -366.29 0 -219.7 -331.32c-78.77,-117.62 -132.82,-191.8 -162.13,-222.53 -28.97,-30.38 -59.7,-51.57 -92.2,-62.87 -32.84,-11.31 -84.42,-16.96 -155.06,-16.96l-62.16 0 0 633.67 -307.3 0zm307.3 -875.28l226.77 0c146.93,0 238.42,-6.35 275.16,-18.71 36.38,-12.36 65.35,-33.92 85.83,-64.29 20.84,-30.38 31.09,-68.52 31.09,-114.08 0,-51.22 -13.77,-92.2 -40.98,-123.98 -27.19,-31.43 -65.69,-51.22 -115.15,-59.34 -25.07,-3.53 -99.61,-5.29 -223.58,-5.29l-239.13 0 0 385.71zm1223.2 875.28l0 -1517.42 491.32 0c186.15,0 307.3,7.41 363.81,22.6 86.89,22.96 159.65,72.42 218.29,148.71 58.63,76.29 87.96,174.85 87.96,295.64 0,93.25 -16.96,171.31 -50.51,234.89 -33.91,63.58 -76.65,113.38 -128.58,149.76 -51.92,36.03 -104.9,60.04 -158.59,71.71 -73.12,14.47 -178.73,21.9 -317.2,21.9l-199.21 0 0 572.21 -307.3 0zm307.3 -1260.99l0 432.33 167.07 0c120.45,0 200.63,-8.12 241.25,-24.02 40.62,-15.89 72.41,-40.62 95.37,-74.88 22.96,-33.91 34.62,-73.12 34.62,-118.32 0,-55.46 -16.25,-101.02 -48.39,-137.06 -32.5,-36.03 -73.12,-58.63 -122.93,-67.81 -36.38,-6.71 -109.49,-10.24 -219.7,-10.24l-147.29 0zm1042.7 511.46c0,-154.7 23.31,-284.69 69.59,-389.95 34.26,-77.36 81.59,-146.93 141.29,-208.4 59.69,-61.46 125.04,-107.02 196.03,-137.05 94.66,-39.92 203.8,-60.05 327.43,-60.05 223.95,0 402.67,69.59 537.25,208.4 134.22,139.18 201.33,332.38 201.33,579.99 0,245.49 -66.76,437.64 -199.92,576.09 -133.16,138.82 -311.54,208.04 -534.42,208.04 -225.7,0 -405.5,-68.88 -538.66,-206.98 -133.16,-137.76 -199.92,-327.79 -199.92,-570.1zm315.78 -10.24c0,172.02 39.91,302.36 119.39,391.37 79.48,88.66 180.5,133.16 302.7,133.16 122.57,0 222.88,-44.15 301.65,-132.11 78.42,-88.3 117.62,-220.41 117.62,-396.66 0,-174.14 -38.15,-304.11 -114.79,-389.59 -76.29,-85.84 -177.67,-128.58 -304.48,-128.58 -126.45,0 -228.53,43.45 -305.88,129.99 -77.36,86.89 -116.21,217.59 -116.21,392.42z"/>
  <path class="fil3 str2" d="M107.74 37.7l558.79 0c126.09,0 222.17,9.53 288.22,28.96 88.66,26.14 164.96,72.76 228.18,139.88 63.58,66.76 111.62,148.71 144.82,245.84 32.85,96.78 49.44,216.52 49.44,358.52 0,125.04 -15.54,232.42 -46.63,322.84 -37.79,110.56 -91.83,199.92 -162.12,268.1 -52.98,51.92 -124.69,92.19 -214.76,121.15 -67.47,21.54 -157.54,32.14 -270.57,32.14l-575.38 0 0 -1517.42zm307.3 256.43l0 1004.55 227.82 0c85.13,0 146.59,-4.95 184.38,-14.48 49.81,-12.36 90.78,-33.56 123.27,-63.23 32.85,-29.67 59.34,-78.41 79.83,-146.23 20.83,-67.81 31.08,-160.71 31.08,-277.98 0,-117.27 -10.24,-206.99 -31.08,-269.86 -20.49,-62.87 -49.45,-111.62 -86.54,-146.93 -37.09,-34.97 -84.07,-58.99 -141.3,-71.35 -42.39,-9.53 -126.09,-14.48 -250.43,-14.48l-137.05 0zm2782.65 701.49l296.7 91.13c-45.56,167.08 -121.51,291.06 -227.47,372.29 -105.97,80.9 -240.19,121.51 -403.02,121.51 -201.68,0 -367.35,-68.88 -497.33,-206.62 -129.63,-137.76 -194.62,-326.02 -194.62,-565.15 0,-252.56 65.35,-448.94 195.68,-588.81 130.34,-139.88 302,-209.82 514.64,-209.82 185.79,0 336.62,55.1 452.47,164.96 69.23,64.99 120.81,158.24 155.42,280.1l-303.07 72.06c-18.01,-78.41 -55.45,-140.59 -112.32,-186.15 -57.22,-45.57 -126.46,-68.18 -207.7,-68.18 -112.67,0 -204.16,40.28 -274.09,121.16 -70.29,80.53 -105.26,211.22 -105.26,392.07 0,191.44 34.62,328.14 103.49,409.38 69.22,81.59 158.94,122.21 269.51,122.21 81.59,0 151.87,-25.78 210.52,-77.7 58.63,-51.93 101.02,-133.17 126.45,-244.43zm496.27 -190.03c0,-154.7 23.31,-284.69 69.59,-389.95 34.26,-77.36 81.59,-146.93 141.29,-208.4 59.69,-61.46 125.04,-107.02 196.03,-137.05 94.66,-39.92 203.8,-60.05 327.43,-60.05 223.95,0 402.67,69.59 537.25,208.4 134.22,139.18 201.33,332.38 201.33,579.99 0,245.49 -66.76,437.64 -199.92,576.09 -133.16,138.82 -311.54,208.04 -534.42,208.04 -225.7,0 -405.5,-68.88 -538.66,-206.98 -133.16,-137.76 -199.92,-327.79 -199.92,-570.1zm315.78 -10.24c0,172.02 39.91,302.36 119.39,391.37 79.48,88.66 180.5,133.16 302.7,133.16 122.57,0 222.88,-44.15 301.65,-132.11 78.42,-88.3 117.62,-220.41 117.62,-396.66 0,-174.14 -38.15,-304.11 -114.79,-389.59 -76.29,-85.84 -177.67,-128.58 -304.48,-128.58 -126.45,0 -228.53,43.45 -305.88,129.99 -77.36,86.89 -116.21,217.59 -116.21,392.42zm1396.28 759.78l0 -1517.42 645.33 0c162.13,0 280.1,13.77 353.57,40.97 73.83,27.2 132.46,75.59 176.61,145.18 44.15,69.93 66.4,149.41 66.4,239.13 0,114.08 -33.21,208.04 -99.96,282.22 -66.76,74.17 -166.36,120.8 -299.17,140.23 66.06,38.5 120.45,80.89 163.19,127.16 43.09,46.27 101.02,128.58 173.78,246.54l185.08 296 -366.29 0 -219.7 -331.32c-78.77,-117.62 -132.82,-191.8 -162.13,-222.53 -28.97,-30.38 -59.7,-51.57 -92.2,-62.87 -32.84,-11.31 -84.42,-16.96 -155.06,-16.96l-62.16 0 0 633.67 -307.3 0zm307.3 -875.28l226.77 0c146.93,0 238.42,-6.35 275.16,-18.71 36.38,-12.36 65.35,-33.92 85.83,-64.29 20.84,-30.38 31.09,-68.52 31.09,-114.08 0,-51.22 -13.77,-92.2 -40.98,-123.98 -27.19,-31.43 -65.69,-51.22 -115.15,-59.34 -25.07,-3.53 -99.61,-5.29 -223.58,-5.29l-239.13 0 0 385.71zm1223.2 875.28l0 -1517.42 491.32 0c186.15,0 307.3,7.41 363.81,22.6 86.89,22.96 159.65,72.42 218.29,148.71 58.63,76.29 87.96,174.85 87.96,295.64 0,93.25 -16.96,171.31 -50.51,234.89 -33.91,63.58 -76.65,113.38 -128.58,149.76 -51.92,36.03 -104.9,60.04 -158.59,71.71 -73.12,14.47 -178.73,21.9 -317.2,21.9l-199.21 0 0 572.21 -307.3 0zm307.3 -1260.99l0 432.33 167.07 0c120.45,0 200.63,-8.12 241.25,-24.02 40.62,-15.89 72.41,-40.62 95.37,-74.88 22.96,-33.91 34.62,-73.12 34.62,-118.32 0,-55.46 -16.25,-101.02 -48.39,-137.06 -32.5,-36.03 -73.12,-58.63 -122.93,-67.81 -36.38,-6.71 -109.49,-10.24 -219.7,-10.24l-147.29 0zm1042.7 511.46c0,-154.7 23.31,-284.69 69.59,-389.95 34.26,-77.36 81.59,-146.93 141.29,-208.4 59.69,-61.46 125.04,-107.02 196.03,-137.05 94.66,-39.92 203.8,-60.05 327.43,-60.05 223.95,0 402.67,69.59 537.25,208.4 134.22,139.18 201.33,332.38 201.33,579.99 0,245.49 -66.76,437.64 -199.92,576.09 -133.16,138.82 -311.54,208.04 -534.42,208.04 -225.7,0 -405.5,-68.88 -538.66,-206.98 -133.16,-137.76 -199.92,-327.79 -199.92,-570.1zm315.78 -10.24c0,172.02 39.91,302.36 119.39,391.37 79.48,88.66 180.5,133.16 302.7,133.16 122.57,0 222.88,-44.15 301.65,-132.11 78.42,-88.3 117.62,-220.41 117.62,-396.66 0,-174.14 -38.15,-304.11 -114.79,-389.59 -76.29,-85.84 -177.67,-128.58 -304.48,-128.58 -126.45,0 -228.53,43.45 -305.88,129.99 -77.36,86.89 -116.21,217.59 -116.21,392.42z"/>
  <path class="fil3 str2" d="M3197.69 995.62l296.7 91.13c-45.56,167.08 -121.51,291.06 -227.47,372.29 -105.97,80.9 -240.19,121.51 -403.02,121.51 -201.68,0 -367.35,-68.88 -497.33,-206.62 -129.63,-137.76 -194.62,-326.02 -194.62,-565.15 0,-252.56 65.35,-448.94 195.68,-588.81 130.34,-139.88 302,-209.82 514.64,-209.82 185.79,0 336.62,55.1 452.47,164.96 69.23,64.99 120.81,158.24 155.42,280.1l-303.07 72.06c-18.01,-78.41 -55.45,-140.59 -112.32,-186.15 -57.22,-45.57 -126.46,-68.18 -207.7,-68.18 -112.67,0 -204.16,40.28 -274.09,121.16 -70.29,80.53 -105.26,211.22 -105.26,392.07 0,191.44 34.62,328.14 103.49,409.38 69.22,81.59 158.94,122.21 269.51,122.21 81.59,0 151.87,-25.78 210.52,-77.7 58.63,-51.93 86.84,-123.04 126.45,-244.43zm496.27 -190.03c0,-154.7 23.31,-284.69 69.59,-389.95 34.26,-77.36 81.59,-146.93 141.29,-208.4 59.69,-61.46 125.04,-107.02 196.03,-137.05 94.66,-39.92 203.8,-60.05 327.43,-60.05 223.95,0 402.67,69.59 537.25,208.4 134.22,139.18 201.33,332.38 201.33,579.99 0,245.49 -66.76,437.64 -199.92,576.09 -133.16,138.82 -311.54,208.04 -534.42,208.04 -225.7,0 -405.5,-68.88 -538.66,-206.98 -133.16,-137.76 -199.92,-327.79 -199.92,-570.1zm315.78 -10.24c0,172.02 39.91,302.36 119.39,391.37 79.48,88.66 180.5,133.16 302.7,133.16 122.57,0 222.88,-44.15 301.65,-132.11 78.42,-88.3 117.62,-220.41 117.62,-396.66 0,-174.14 -38.15,-304.11 -114.79,-389.59 -76.29,-85.84 -177.67,-128.58 -304.48,-128.58 -126.45,0 -228.53,43.45 -305.88,129.99 -77.36,86.89 -116.21,217.59 -116.21,392.42zm1396.28 759.78l0 -1517.42 645.33 0c162.13,0 280.1,13.77 353.57,40.97 73.83,27.2 132.46,75.59 176.61,145.18 44.15,69.93 66.4,149.41 66.4,239.13 0,114.08 -33.21,208.04 -99.96,282.22 -66.76,74.17 -166.36,120.8 -299.17,140.23 66.06,38.5 120.45,80.89 163.19,127.16 43.09,46.27 101.02,128.58 173.78,246.54l185.08 296 -366.29 0 -219.7 -331.32c-78.77,-117.62 -132.82,-191.8 -162.13,-222.53 -28.97,-30.38 -59.7,-51.57 -92.2,-62.87 -32.84,-11.31 -84.42,-16.96 -155.06,-16.96l-62.16 0 0 633.67 -307.3 0zm307.3 -875.28l226.77 0c146.93,0 238.42,-6.35 275.16,-18.71 36.38,-12.36 65.35,-33.92 85.83,-64.29 20.84,-30.38 31.09,-68.52 31.09,-114.08 0,-51.22 -13.77,-92.2 -40.98,-123.98 -27.19,-31.43 -65.69,-51.22 -115.15,-59.34 -25.07,-3.53 -99.61,-5.29 -223.58,-5.29l-239.13 0 0 385.71zm1223.2 875.28l0 -1517.42 491.32 0c186.15,0 307.3,7.41 363.81,22.6 86.89,22.96 159.65,72.42 218.29,148.71 58.63,76.29 87.96,174.85 87.96,295.64 0,93.25 -16.96,171.31 -50.51,234.89 -33.91,63.58 -76.65,113.38 -128.58,149.76 -51.92,36.03 -104.9,60.04 -158.59,71.71 -73.12,14.47 -178.73,21.9 -317.2,21.9l-199.21 0 0 572.21 -307.3 0zm307.3 -1260.99l0 432.33 167.07 0c120.45,0 200.63,-8.12 241.25,-24.02 40.62,-15.89 72.41,-40.62 95.37,-74.88 22.96,-33.91 34.62,-73.12 34.62,-118.32 0,-55.46 -16.25,-101.02 -48.39,-137.06 -32.5,-36.03 -73.12,-58.63 -122.93,-67.81 -36.38,-6.71 -109.49,-10.24 -219.7,-10.24l-147.29 0zm1042.7 511.46c0,-154.7 23.31,-284.69 69.59,-389.95 34.26,-77.36 81.59,-146.93 141.29,-208.4 59.69,-61.46 125.04,-107.02 196.03,-137.05 94.66,-39.92 203.8,-60.05 327.43,-60.05 223.95,0 402.67,69.59 537.25,208.4 134.22,139.18 201.33,332.38 201.33,579.99 0,245.49 -66.76,437.64 -199.92,576.09 -133.16,138.82 -311.54,208.04 -534.42,208.04 -225.7,0 -405.5,-68.88 -538.66,-206.98 -133.16,-137.76 -199.92,-327.79 -199.92,-570.1zm315.78 -10.24c0,172.02 39.91,302.36 119.39,391.37 79.48,88.66 180.5,133.16 302.7,133.16 122.57,0 222.88,-44.15 301.65,-132.11 78.42,-88.3 117.62,-220.41 117.62,-396.66 0,-174.14 -38.15,-304.11 -114.79,-389.59 -76.29,-85.84 -177.67,-128.58 -304.48,-128.58 -126.45,0 -228.53,43.45 -305.88,129.99 -77.36,86.89 -116.21,217.59 -116.21,392.42z"/>
 </g>
</svg>
