<?xml version="1.0" encoding="UTF-8"?>
<!DOCTYPE svg PUBLIC "-//W3C//DTD SVG 1.1//EN" "http://www.w3.org/Graphics/SVG/1.1/DTD/svg11.dtd">
<!-- Creator: CorelDRAW (Wersja próbna) -->
<svg xmlns="http://www.w3.org/2000/svg" xml:space="preserve" width="75.2087mm" height="47.1145mm" version="1.1" style="shape-rendering:geometricPrecision; text-rendering:geometricPrecision; image-rendering:optimizeQuality; fill-rule:evenodd; clip-rule:evenodd"
viewBox="0 0 6651.15 4166.61"
 xmlns:xlink="http://www.w3.org/1999/xlink"
 xmlns:xodm="http://www.corel.com/coreldraw/odm/2003">
 <defs>
  <style type="text/css">
   <![CDATA[
    .str0 {stroke:#FEFEFE;stroke-width:17.69;stroke-miterlimit:22.9256}
    .fil0 {fill:#FEFEFE;fill-rule:nonzero}
   ]]>
  </style>
 </defs>
 <g id="Warstwa_x0020_1">
  <metadata id="CorelCorpID_0Corel-Layer"/>
  <path class="fil0 str0" d="M1098.09 918.58l1191.69 -624.75c268.91,-140.98 484.46,-228.07 647.03,-260.5 218.3,-43.38 433.15,-29.25 643,43.19 210.24,71.28 404.31,192.35 583.72,362.38 178.27,169.66 347.53,406.47 506.29,709.29 36.15,68.96 68.77,136.56 97.86,202.85l-10.53 -0.16c-57.23,-5.9 -136.45,-8.8 -237.75,-8.8l-428.4 0 -0.86 353.96c-31.58,-70.91 -68.11,-145.88 -109.55,-224.92 -131.12,-250.09 -253.27,-429.98 -368,-540.77 -113.99,-111.18 -230.26,-182.74 -348.83,-216.61 -118.2,-33.11 -245.24,-31.8 -381.11,5.81 -101.05,27.05 -285.1,110.08 -550.27,249.11l-292.25 153.22 83.24 158.8c-43.33,-5.95 -88.6,-8.92 -135.79,-8.92 -128.4,0 -241.77,20.92 -340.09,62.37 -73.76,31.17 -141.62,78.51 -203.62,142.35 -11.74,12.09 -23.02,24.47 -33.83,37.16l-311.97 -595.06zm3422.04 811.65l0 239.48 91.94 0c79.04,0 131.67,-5.35 158.31,-15.76 26.64,-10.42 47.52,-26.66 62.58,-49.14 6.07,-13.73 9.33,-27.27 9.33,-60.3 0,-33.02 -8.48,-48.34 -18.37,-63.06 -21.32,-23.64 -48,-38.5 -80.66,-44.5 -23.85,-4.38 -71.89,-6.72 -144.16,-6.72l-78.96 0zm430.47 577.24c-8.82,117.44 -30.58,228.89 -65.27,334.36 -54.95,169.96 -162.85,336.01 -322.54,498.48 -119.8,121.38 -300.05,244.68 -541.09,371.06l-1227.08 643.31 -660.29 -1259.48c166.34,-24.22 304.05,-92.87 412.74,-206.18 75.59,-78.58 130.58,-173.8 164.92,-285.62l70.18 133.87 -3.36 304.81 148.71 0 235.74 422.15 485.86 -254.71c144.38,-75.69 210.65,-110.51 284.39,-165.69l191.27 -0.64 402.44 -1.11 3.25 -519.77 142 0c114.78,0 207.46,-5.01 278.12,-14.83zm-2954.18 324.65l-30.12 -57.46c7.76,0.26 15.6,0.41 23.54,0.41 144.44,0 260.02,-44.86 346.31,-134.82 8.72,-9.06 16.98,-18.48 24.82,-28.25 -15.91,30.87 -34.7,58.52 -56.39,82.94 -80.72,90.12 -183.2,135.96 -308.16,137.18zm-135.82 -214.85l-143.91 -274.51c-0.56,-10.93 -0.83,-22.14 -0.83,-33.65 0,-113.3 25.2,-242.23 75.32,-298.52 50.13,-56.07 116.27,-84.24 198.21,-84.24 82.17,0 147.86,27.71 197.3,83.32 49.67,55.41 74.39,183.85 74.39,296.69 0,114.21 -25.41,199.81 -76.22,257.05 -51.05,56.99 -116.05,85.6 -195.47,85.6 -47.99,0 -90.94,-10.59 -128.79,-31.73zm-67.45 -829.48c57.93,-28.68 123.99,-43.06 198.11,-43.06 95.41,0 176.97,23.3 244.79,70.03 -70.39,-39.11 -153.29,-58.7 -248.95,-58.7 -72.3,0 -136.94,10.64 -193.95,31.73z"/>
  <path class="fil0 str0" d="M2846.42 2758.7l0 -1323.09 562.68 0c141.36,0 244.22,12.01 308.29,35.72 64.37,23.72 115.5,65.91 153.99,126.59 38.5,60.98 57.9,130.27 57.9,208.51 0,99.47 -28.95,181.4 -87.16,246.07 -58.21,64.67 -145.05,105.33 -260.86,122.27 57.6,33.57 105.03,70.53 142.29,110.87 37.57,40.34 88.08,112.11 151.53,214.97l161.38 258.09 -319.38 0 -191.56 -288.88c-68.68,-102.56 -115.81,-167.24 -141.36,-194.03 -25.26,-26.49 -52.05,-44.97 -80.39,-54.82 -28.64,-9.86 -73.61,-14.79 -135.2,-14.79l-54.2 0 0 552.52 -267.94 0zm-1943.2 -496.69l258.7 88.3c-39.73,145.68 -105.95,253.78 -198.34,324.61 -92.4,70.54 -209.43,105.95 -351.41,105.95 -175.85,0 -320.31,-60.06 -433.64,-180.16 -113.03,-120.11 -169.7,-284.27 -169.7,-492.77 0,-220.21 56.98,-391.44 170.62,-513.41 113.65,-121.96 263.33,-182.95 448.73,-182.95 162,0 293.51,48.05 394.52,143.83 60.37,56.67 105.34,137.98 135.52,244.22l-264.26 62.83c-15.71,-68.37 -48.35,-122.58 -97.93,-162.31 -49.9,-39.73 -110.26,-59.45 -181.1,-59.45 -98.24,0 -178.01,35.12 -238.99,105.65 -61.29,70.22 -91.78,184.17 -91.78,341.86 0,166.92 30.18,286.12 90.24,356.95 60.36,71.14 138.59,106.56 234.99,106.56 71.14,0 132.43,-22.48 183.56,-67.75 51.12,-45.27 88.08,-124.96 110.25,-221.97zm432.72 -156.85c0,-134.89 20.32,-248.23 60.68,-340.01 29.87,-67.45 71.14,-128.12 123.19,-181.71 52.04,-53.59 109.02,-93.32 170.93,-119.49 82.54,-34.81 177.7,-52.36 285.5,-52.36 195.27,0 351.1,60.68 468.44,181.71 117.03,121.35 175.55,289.81 175.55,505.71 0,214.05 -58.21,381.59 -174.32,502.32 -116.11,121.04 -271.64,181.4 -465.98,181.4 -196.8,0 -353.57,-60.06 -469.67,-180.47 -116.11,-120.11 -174.32,-285.81 -174.32,-497.09zm275.34 -8.93c0,149.99 34.8,263.64 104.1,341.25 69.3,77.3 157.38,116.11 263.94,116.11 106.87,0 194.34,-38.5 263.02,-115.19 68.38,-76.99 102.56,-192.18 102.56,-345.86 0,-151.84 -33.26,-265.17 -100.09,-339.7 -66.52,-74.84 -154.91,-112.11 -265.48,-112.11 -110.25,0 -199.26,37.89 -266.7,113.34 -67.45,75.76 -101.33,189.72 -101.33,342.17zm1503.09 -100.71l197.72 0c128.12,0 207.89,-5.54 239.92,-16.32 31.72,-10.78 56.98,-29.57 74.83,-56.06 18.17,-26.49 27.11,-59.75 27.11,-99.47 0,-44.66 -12.01,-80.39 -35.73,-108.1 -23.71,-27.41 -57.28,-44.66 -100.4,-51.74 -21.86,-3.08 -86.85,-4.62 -194.95,-4.62l-208.51 0 0 336.31zm1066.55 763.18l0 -1323.09 428.4 0c162.31,0 267.94,6.46 317.22,19.7 75.76,20.02 139.21,63.14 190.33,129.66 51.12,66.52 76.69,152.45 76.69,257.78 0,81.31 -14.79,149.37 -44.04,204.81 -29.56,55.44 -66.83,98.86 -112.11,130.58 -45.27,31.41 -91.47,52.35 -138.28,62.52 -63.75,12.62 -155.84,19.09 -276.57,19.09l-173.7 0 0 498.93 -267.94 0zm267.94 -1099.5l0 376.97 145.67 0c105.03,0 174.94,-7.08 210.35,-20.94 35.42,-13.86 63.13,-35.42 83.16,-65.29 20.02,-29.56 30.18,-63.75 30.18,-103.17 0,-48.36 -14.17,-88.08 -42.19,-119.5 -28.33,-31.41 -63.75,-51.12 -107.18,-59.13 -31.72,-5.85 -95.47,-8.93 -191.56,-8.93l-128.43 0zm909.17 445.96c0,-134.89 20.32,-248.23 60.68,-340.01 29.87,-67.45 71.14,-128.12 123.19,-181.71 52.04,-53.59 109.02,-93.32 170.93,-119.49 82.54,-34.81 177.7,-52.36 285.5,-52.36 195.27,0 351.1,60.68 468.44,181.71 117.03,121.35 175.55,289.81 175.55,505.71 0,214.05 -58.21,381.59 -174.32,502.32 -116.11,121.04 -271.64,181.4 -465.98,181.4 -196.8,0 -353.57,-60.06 -469.67,-180.47 -116.11,-120.11 -174.32,-285.81 -174.32,-497.09zm275.34 -8.93c0,149.99 34.8,263.64 104.1,341.25 69.3,77.3 157.38,116.11 263.94,116.11 106.87,0 194.34,-38.5 263.02,-115.19 68.38,-76.99 102.56,-192.18 102.56,-345.86 0,-151.84 -33.26,-265.17 -100.09,-339.7 -66.52,-74.84 -154.91,-112.11 -265.48,-112.11 -110.25,0 -199.26,37.89 -266.7,113.34 -67.45,75.76 -101.33,189.72 -101.33,342.17z"/>
 </g>
</svg>
