<?xml version="1.0" encoding="UTF-8"?>
<!DOCTYPE svg PUBLIC "-//W3C//DTD SVG 1.0//EN" "http://www.w3.org/TR/2001/REC-SVG-20010904/DTD/svg10.dtd">
<!-- Creator: CorelDRAW (Wersja próbna) -->
<svg xmlns="http://www.w3.org/2000/svg" xml:space="preserve" width="75.0087mm" height="46.4374mm" version="1.0" style="shape-rendering:geometricPrecision; text-rendering:geometricPrecision; image-rendering:optimizeQuality; fill-rule:evenodd; clip-rule:evenodd"
viewBox="0 0 76490.5 47354.8"
 xmlns:xlink="http://www.w3.org/1999/xlink"
 xmlns:xodm="http://www.corel.com/coreldraw/odm/2003">
 <defs>
  <style type="text/css">
   <![CDATA[
    .fil0 {fill:#FEFEFE;fill-rule:nonzero}
   ]]>
  </style>
 </defs>
 <g id="Warstwa_x0020_1">
  <metadata id="CorelCorpID_0Corel-Layer"/>
  <path class="fil0" d="M14523.4 10391.3l13611.8 -7136c3071.5,-1610.3 5533.7,-2605.1 7390.6,-2975.4 2493.4,-495.5 4947.5,-334.1 7344.6,493.4 2401.3,814.2 4618.1,2197.1 6667.4,4139.2 2036.2,1937.9 3969.6,4642.8 5782.9,8101.8 495.3,944.7 932.3,1867.1 1311.6,2767.6 -310.5,-66.8 -742.3,-117.3 -1295.2,-151.5 -631.4,-39.1 -1413.8,-58.4 -2347.6,-58.4l-5449.8 0 0 1306.5 -91.6 -175.6c-1497.6,-2856.6 -2892.9,-4911.3 -4203.3,-6176.9 -1302,-1269.9 -2630.2,-2087.3 -3984.4,-2474.1 -1350.2,-378.1 -2801.3,-363.2 -4353.1,66.4 -1154.2,309 -3256.5,1257.5 -6285.3,2845.3l-3338.3 1750.1 2065.8 3940.4c-463.1,-323.8 -963.4,-590.3 -1501.2,-799.1 -961.3,-373.2 -2034.6,-560.2 -3221,-560.2 -646.3,0 -1262,53.9 -1846.9,161.4 -584.3,107.3 -1132,268.9 -1642.4,484.2 -389.6,164.7 -763.8,372.1 -1121.7,622.3 -62.8,43.8 -125,88.9 -186.7,135.3l-3306.3 -6306.6zm44055.9 14384.8c8.1,1893 -257.7,3659.1 -796.9,5298.5 -627.6,1941.4 -1860.1,3838.1 -3684.2,5693.8 -1368.3,1386.4 -3427.2,2794.8 -6180.4,4238.3l-14016 7348 -8235.7 -15709.3c71.9,-25.4 143.2,-51.9 213.8,-79.4 965.9,-376 1809.9,-939.4 2529.9,-1690 720,-748.7 1260.6,-1642.5 1620.8,-2680.4 354.9,-1022.7 532.6,-2177.9 532.6,-3464.3 0,-350.5 -13.1,-691.3 -39.2,-1022.2l1627.7 3104.8 0 5524.3 0 509.9 3163.5 0 2797.3 5335.8 5549.6 -2909.5c1810.6,-949.2 3133.4,-1760 3971.7,-2426.3l4015.3 0 0 -5753.2 1493 0c696.5,0 1319.7,-19.3 1869.2,-57.2 557.9,-38.4 1030.5,-96.4 1417.6,-173 301.8,-58.5 634.5,-177.4 914.5,-304 292.4,-132.2 583,-298.7 871.2,-498.6l2 -2c125.8,-88.1 246.7,-182.8 362.6,-284.1zm-34682.9 3493.9l-4144.6 -7905.5c67.8,-95.9 139.9,-186.5 216.1,-272.2l-1.1 -0.9c337.5,-377.3 728.9,-660.9 1172.9,-849.6 447,-189.9 954.9,-285.1 1523.2,-285.1 572,0 1080,93.6 1523.9,280.9 437.4,184.6 823,464.8 1157,840.5l1.9 0c333.5,372 585.7,848.6 756.6,1429.1 177.5,603.3 266.2,1320.1 266.2,2149.4 0,839.7 -91.3,1567.2 -273.7,2182.4 -175.6,592.2 -435.5,1082 -779.3,1469.3 -345.8,385.6 -737.1,674.6 -1174.1,866.3 -79.8,35 -161.5,66.8 -244.9,95.4zm27752.7 -9100.2l0 3327.1 1169.9 0c597.1,0 1083.7,-19 1460.4,-56.5 357.4,-35.5 617.4,-85.5 780,-149.1 159.7,-62.4 299.4,-140.3 418.5,-233.5 116.7,-91.4 217.9,-200.7 303.3,-328.2l2 -2c84.6,-125 149.2,-261.9 192.9,-410.8 43.4,-148.3 65.5,-312.9 65.5,-494.1 0,-222 -30.9,-419.7 -92.2,-593 -58.6,-165.6 -147.2,-314.5 -264.8,-446.4 -124.8,-138.1 -263.8,-249.6 -417.3,-334.6 -159.4,-88.1 -335.8,-150.1 -529.9,-185.9 -161.3,-29.8 -415.6,-52.9 -763,-69.1 -337.9,-15.7 -789.1,-23.9 -1354.3,-23.9l-971 0z"/>
  <path class="fil0" d="M32720.2 31354.5l0 -15256.6 6488.3 0c1630.1,0 2816.2,138.5 3554.9,411.9 742.3,273.5 1331.8,760 1775.7,1459.7 443.9,703.1 667.6,1502.2 667.6,2404.3 0,1147 -333.9,2091.7 -1005.1,2837.5 -671.2,745.7 -1672.6,1214.5 -3008,1409.9 664.2,387.1 1211.1,813.3 1640.8,1278.5 433.2,465.2 1015.7,1292.7 1747.2,2478.8l1860.8 2976.1 -3682.7 0 -2208.9 -3331.1c-791.9,-1182.6 -1335.4,-1928.5 -1630.1,-2237.3 -291.2,-305.4 -600.2,-518.5 -927,-632.1 -330.2,-113.7 -848.7,-170.5 -1559,-170.5l-625 0 0 6371.1 -3089.7 0zm-22407.1 -5625.4l2983.1 916.2c-458.1,1679.8 -1221.7,2926.4 -2287,3743.1 -1065.4,813.4 -2415,1221.7 -4052.1,1221.7 -2027.8,0 -3693.5,-692.5 -5000.3,-2077.4 -1303.3,-1385 -1956.8,-3277.9 -1956.8,-5682.2 0,-2539.3 657,-4513.7 1967.4,-5920.1 1310.5,-1406.3 3036.4,-2109.6 5174.3,-2109.6 1868,0 3384.5,554 4549.2,1658.5 696.1,653.5 1214.6,1591 1562.7,2816.2l-3047.1 724.5c-181.1,-788.4 -557.5,-1413.5 -1129.3,-1871.6 -575.3,-458.2 -1271.4,-685.5 -2088.3,-685.5 -1132.8,0 -2052.7,404.9 -2755.8,1218.2 -706.7,809.7 -1058.3,2123.6 -1058.3,3942 0,1924.8 348,3299.2 1040.6,4116 696,820.3 1598.1,1228.7 2709.7,1228.7 820.3,0 1527,-259.2 2116.6,-781.2 589.5,-522.1 1015.7,-1338.9 1271.3,-2457.6zm4989.7 -1910.6c0,-1555.4 234.3,-2862.4 699.7,-3920.7 344.5,-777.8 820.3,-1477.3 1420.5,-2095.3 600.1,-618 1257.2,-1076 1971,-1377.9 951.7,-401.4 2049.1,-603.8 3292.1,-603.8 2251.6,0 4048.5,699.7 5401.6,2095.3 1349.4,1399.3 2024.2,3341.8 2024.2,5831.4 0,2468.2 -671.2,4400.1 -2010,5792.2 -1338.8,1395.7 -3132.3,2091.7 -5373.2,2091.7 -2269.3,0 -4077,-692.5 -5415.8,-2081 -1338.8,-1385 -2010,-3295.6 -2010,-5731.9zm3174.9 -103c0,1729.5 401.3,3040 1200.4,3934.9 799.1,891.4 1814.8,1338.8 3043.5,1338.8 1232.4,0 2240.9,-443.9 3032.9,-1328.2 788.5,-887.8 1182.6,-2216 1182.6,-3988.2 0,-1750.8 -383.5,-3057.6 -1154.2,-3917.1 -767.1,-863 -1786.3,-1292.7 -3061.3,-1292.7 -1271.3,0 -2297.7,436.9 -3075.4,1306.9 -777.8,873.6 -1168.4,2187.7 -1168.4,3945.5zm17332.2 -1161.3l2280 0c1477.3,0 2397.1,-63.8 2766.5,-188.1 365.8,-124.3 657,-341 862.9,-646.4 209.6,-305.4 312.6,-688.9 312.6,-1147 0,-515 -138.5,-927 -412,-1246.5 -273.4,-316 -660.5,-515 -1157.7,-596.7 -252.1,-35.5 -1001.5,-53.2 -2247.9,-53.2l-2404.3 0 0 3878zm12298.3 8800.3l0 -15256.6 4939.9 0c1871.6,0 3089.7,74.5 3657.9,227.2 873.6,230.9 1605.2,728.1 2194.7,1495.2 589.5,767.1 884.3,1758 884.3,2972.5 0,937.6 -170.5,1722.4 -507.8,2361.7 -340.9,639.3 -770.6,1140 -1292.7,1505.8 -522,362.2 -1054.7,603.7 -1594.5,721 -735.1,145.5 -1797,220.2 -3189.2,220.2l-2002.9 0 0 5753.2 -3089.7 0zm3089.7 -12678.3l0 4346.8 1679.7 0c1211.1,0 2017.2,-81.7 2425.6,-241.5 408.4,-159.8 728,-408.4 958.9,-752.9 230.9,-340.9 348,-735.1 348,-1189.6 0,-557.6 -163.4,-1015.7 -486.5,-1378 -326.7,-362.2 -735.1,-589.5 -1235.9,-681.8 -365.8,-67.5 -1100.8,-103 -2208.9,-103l-1480.9 0zm10483.6 5142.3c0,-1555.4 234.3,-2862.4 699.7,-3920.7 344.5,-777.8 820.3,-1477.3 1420.5,-2095.3 600.1,-618 1257.2,-1076 1971,-1377.9 951.7,-401.4 2049.1,-603.8 3292.1,-603.8 2251.6,0 4048.5,699.7 5401.6,2095.3 1349.4,1399.3 2024.2,3341.8 2024.2,5831.4 0,2468.2 -671.2,4400.1 -2010,5792.2 -1338.8,1395.7 -3132.3,2091.7 -5373.2,2091.7 -2269.3,0 -4077,-692.5 -5415.8,-2081 -1338.8,-1385 -2010,-3295.6 -2010,-5731.9zm3174.9 -103c0,1729.5 401.3,3040 1200.4,3934.9 799.1,891.4 1814.8,1338.8 3043.5,1338.8 1232.4,0 2240.9,-443.9 3032.9,-1328.2 788.5,-887.8 1182.6,-2216 1182.6,-3988.2 0,-1750.8 -383.5,-3057.6 -1154.2,-3917.1 -767.1,-863 -1786.3,-1292.7 -3061.3,-1292.7 -1271.3,0 -2297.7,436.9 -3075.4,1306.9 -777.8,873.6 -1168.4,2187.7 -1168.4,3945.5z"/>
 </g>
</svg>
