<?xml version="1.0" encoding="UTF-8"?>
<!DOCTYPE svg PUBLIC "-//W3C//DTD SVG 1.1//EN" "http://www.w3.org/Graphics/SVG/1.1/DTD/svg11.dtd">
<!-- Creator: CorelDRAW (Wersja próbna) -->
<svg xmlns="http://www.w3.org/2000/svg" xml:space="preserve" width="75.0087mm" height="47.1145mm" version="1.1" style="shape-rendering:geometricPrecision; text-rendering:geometricPrecision; image-rendering:optimizeQuality; fill-rule:evenodd; clip-rule:evenodd"
viewBox="0 0 6631.42 4165.33"
 xmlns:xlink="http://www.w3.org/1999/xlink"
 xmlns:xodm="http://www.corel.com/coreldraw/odm/2003">
 <defs>
  <style type="text/css">
   <![CDATA[
    .str0 {stroke:#2B2A29;stroke-width:17.68;stroke-miterlimit:22.9256}
    .fil0 {fill:#2B2A29;fill-rule:nonzero}
   ]]>
  </style>
 </defs>
 <g id="Warstwa_x0020_1">
  <metadata id="CorelCorpID_0Corel-Layer"/>
  <path class="fil0 str0" d="M1088.91 918.3l1191.32 -624.55c268.82,-140.93 484.31,-228 646.83,-260.42 218.23,-43.36 433.02,-29.24 642.8,43.18 210.17,71.26 404.19,192.29 583.54,362.27 178.21,169.61 347.42,406.34 506.13,709.07 36.14,68.94 68.75,136.52 97.83,202.78l-10.53 -0.16c-57.21,-5.9 -136.41,-8.8 -237.68,-8.8l-428.27 0 -0.86 353.85c-31.57,-70.89 -68.09,-145.84 -109.51,-224.85 -131.07,-250.01 -253.19,-429.84 -367.89,-540.6 -113.95,-111.15 -230.19,-182.69 -348.72,-216.54 -118.17,-33.1 -245.17,-31.79 -380.99,5.81 -101.02,27.04 -285.01,110.05 -550.1,249.03l-292.16 153.17 83.22 158.75c-43.32,-5.95 -88.57,-8.92 -135.75,-8.92 -128.36,0 -241.69,20.91 -339.98,62.35 -73.73,31.16 -141.58,78.49 -203.56,142.3 -11.74,12.09 -23.01,24.46 -33.82,37.15l-311.87 -594.88zm3403.31 784.87l0 283.61 109.59 0c79.02,0 131.61,-5.33 158.26,-15.75 26.65,-10.43 47.5,-26.66 62.56,-49.13 15.06,-22.24 22.71,-47.96 22.71,-77.61 0,-36.38 -10.66,-66.27 -31.75,-89.91 -21.32,-23.63 -47.96,-38.47 -80.64,-44.49 -23.86,-4.4 -71.82,-6.72 -144.11,-6.72l-96.62 0zm448.02 603.58c-8.81,117.41 -30.57,228.82 -65.25,334.26 -54.93,169.91 -162.8,335.91 -322.44,498.32 -119.76,121.34 -299.95,244.61 -540.92,370.94l-1226.7 643.11 -660.09 -1259.09c166.29,-24.22 303.96,-92.84 412.61,-206.12 75.56,-78.55 130.54,-173.75 164.86,-285.53l70.16 133.82 -3.36 304.72 148.67 0 235.67 422.02 485.71 -254.63c144.34,-75.67 210.59,-110.48 284.3,-165.64l191.21 -0.64 402.31 -1.11 3.25 -519.61 141.96 0c114.75,0 207.4,-5.01 278.04,-14.83zm-2953.27 324.55l-30.11 -57.44c7.76,0.26 15.6,0.41 23.53,0.41 144.4,0 259.94,-44.85 346.2,-134.78 8.72,-9.06 16.97,-18.48 24.82,-28.24 -15.9,30.86 -34.69,58.5 -56.37,82.91 -80.69,90.09 -183.15,135.92 -308.07,137.14zm-135.78 -258.99l-143.87 -274.43c-0.56,-10.93 -0.83,-22.13 -0.83,-33.64 0,-113.26 25.19,-197.95 75.3,-254.23 50.11,-56.05 116.23,-84.21 198.15,-84.21 82.14,0 147.82,27.7 197.24,83.29 49.65,55.39 74.37,139.59 74.37,252.4 0,114.18 -25.4,199.75 -76.2,256.97 -51.04,56.97 -116.01,85.57 -195.41,85.57 -47.98,0 -90.91,-10.59 -128.75,-31.72zm-67.43 -785.02c57.92,-28.67 123.95,-43.05 198.04,-43.05 95.38,0 176.91,23.3 244.72,70.01 -70.36,-39.09 -153.25,-58.69 -248.87,-58.69 -72.27,0 -136.9,10.64 -193.89,31.72z"/>
  <path class="fil0" d="M2836.71 2757.85l0 -1322.68 562.51 0c141.32,0 244.15,12.01 308.19,35.71 64.35,23.71 115.46,65.89 153.95,126.55 38.48,60.96 57.88,130.23 57.88,208.44 0,99.44 -28.94,181.34 -87.14,246 -58.19,64.65 -145.01,105.29 -260.78,122.23 57.58,33.56 104.99,70.51 142.25,110.84 37.56,40.33 88.05,112.08 151.48,214.9l161.33 258.01 -319.28 0 -191.5 -288.8c-68.66,-102.53 -115.77,-167.19 -141.32,-193.97 -25.25,-26.48 -52.04,-44.96 -80.36,-54.8 -28.63,-9.86 -73.58,-14.78 -135.16,-14.78l-54.19 0 0 552.35 -267.86 0zm-1942.6 -496.54l258.62 88.28c-39.71,145.64 -105.91,253.71 -198.27,324.51 -92.37,70.51 -209.37,105.91 -351.3,105.91 -175.8,0 -320.21,-60.04 -433.5,-180.11 -113,-120.08 -169.65,-284.18 -169.65,-492.62 0,-220.15 56.96,-391.32 170.57,-513.25 113.61,-121.92 263.25,-182.89 448.59,-182.89 161.95,0 293.42,48.03 394.4,143.79 60.35,56.65 105.3,137.94 135.48,244.15l-264.17 62.81c-15.7,-68.35 -48.33,-122.54 -97.9,-162.26 -49.88,-39.72 -110.23,-59.43 -181.04,-59.43 -98.21,0 -177.96,35.11 -238.92,105.61 -61.27,70.2 -91.75,184.11 -91.75,341.75 0,166.87 30.17,286.03 90.21,356.84 60.34,71.12 138.55,106.52 234.92,106.52 71.12,0 132.39,-22.47 183.5,-67.73 51.11,-45.26 88.05,-124.92 110.22,-221.91zm432.58 -156.8c0,-134.85 20.32,-248.15 60.66,-339.9 29.86,-67.43 71.12,-128.08 123.15,-181.65 52.03,-53.58 108.99,-93.29 170.88,-119.46 82.51,-34.8 177.65,-52.35 285.41,-52.35 195.21,0 350.99,60.66 468.3,181.65 116.99,121.31 175.49,289.72 175.49,505.56 0,213.98 -58.19,381.47 -174.26,502.16 -116.07,121 -271.56,181.34 -465.83,181.34 -196.74,0 -353.46,-60.04 -469.53,-180.42 -116.07,-120.08 -174.26,-285.72 -174.26,-496.94zm275.25 -8.93c0,149.94 34.79,263.55 104.07,341.14 69.28,77.28 157.33,116.07 263.86,116.07 106.84,0 194.28,-38.48 262.94,-115.15 68.36,-76.97 102.53,-192.12 102.53,-345.76 0,-151.79 -33.25,-265.08 -100.06,-339.6 -66.5,-74.82 -154.87,-112.08 -265.4,-112.08 -110.22,0 -199.2,37.87 -266.62,113.3 -67.43,75.74 -101.3,189.66 -101.3,342.06zm1502.63 -100.68l197.66 0c128.08,0 207.82,-5.53 239.84,-16.31 31.71,-10.78 56.96,-29.56 74.81,-56.04 18.17,-26.48 27.1,-59.73 27.1,-99.44 0,-44.65 -12.01,-80.36 -35.72,-108.07 -23.7,-27.4 -57.26,-44.65 -100.37,-51.73 -21.85,-3.08 -86.83,-4.61 -194.89,-4.61l-208.44 0 0 336.21zm1066.22 762.95l0 -1322.68 428.27 0c162.26,0 267.86,6.46 317.12,19.7 75.74,20.02 139.16,63.12 190.27,129.62 51.11,66.5 76.67,152.41 76.67,257.7 0,81.28 -14.78,149.32 -44.03,204.75 -29.56,55.42 -66.81,98.83 -112.08,130.54 -45.26,31.4 -91.44,52.34 -138.24,62.5 -63.73,12.62 -155.79,19.09 -276.49,19.09l-173.64 0 0 498.77 -267.86 0zm267.86 -1099.16l0 376.85 145.63 0c104.99,0 174.88,-7.08 210.29,-20.94 35.41,-13.85 63.11,-35.41 83.13,-65.27 20.02,-29.56 30.17,-63.73 30.17,-103.14 0,-48.34 -14.16,-88.05 -42.18,-119.47 -28.33,-31.4 -63.73,-51.11 -107.15,-59.11 -31.71,-5.85 -95.44,-8.93 -191.5,-8.93l-128.39 0zm908.88 445.82c0,-134.85 20.32,-248.15 60.66,-339.9 29.86,-67.43 71.12,-128.08 123.15,-181.65 52.03,-53.58 108.99,-93.29 170.88,-119.46 82.51,-34.8 177.65,-52.35 285.41,-52.35 195.21,0 350.99,60.66 468.3,181.65 116.99,121.31 175.49,289.72 175.49,505.56 0,213.98 -58.19,381.47 -174.26,502.16 -116.07,121 -271.56,181.34 -465.83,181.34 -196.74,0 -353.46,-60.04 -469.53,-180.42 -116.07,-120.08 -174.26,-285.72 -174.26,-496.94zm275.25 -8.93c0,149.94 34.79,263.55 104.07,341.14 69.28,77.28 157.33,116.07 263.86,116.07 106.84,0 194.28,-38.48 262.94,-115.15 68.36,-76.97 102.53,-192.12 102.53,-345.76 0,-151.79 -33.25,-265.08 -100.06,-339.6 -66.5,-74.82 -154.87,-112.08 -265.4,-112.08 -110.22,0 -199.2,37.87 -266.62,113.3 -67.43,75.74 -101.3,189.66 -101.3,342.06z"/>
 </g>
</svg>
